HIERARCHY
ROOT joint_Root
{
  OFFSET 0 0 0
  CHANNELS 6 Xposition Yposition Zposition Zrotation Xrotation Yrotation
  JOINT Hips
  {
    OFFSET 0 93.9241 -3
    CHANNELS 6 Xposition Yposition Zposition Zrotation Xrotation Yrotation
    JOINT Spine
    {
      OFFSET 15.7357 0 0
      CHANNELS 6 Xposition Yposition Zposition Zrotation Xrotation Yrotation
      JOINT Chest
      {
        OFFSET 8.98455 -0.406207 0
        CHANNELS 6 Xposition Yposition Zposition Zrotation Xrotation Yrotation
        JOINT Neck
        {
          OFFSET 16.3773 0 0
          CHANNELS 6 Xposition Yposition Zposition Zrotation Xrotation Yrotation
          JOINT Head
          {
            OFFSET 6.45672 0 0
            CHANNELS 6 Xposition Yposition Zposition Zrotation Xrotation Yrotation
            End Site
            {
              OFFSET 0 0 0
            }
          }
        }
        JOINT Shoulder_L
        {
          OFFSET 12.9942 -0.242716 4.98039
          CHANNELS 6 Xposition Yposition Zposition Zrotation Xrotation Yrotation
          JOINT UpperArm_L
          {
            OFFSET 5.34809 0 0
            CHANNELS 6 Xposition Yposition Zposition Zrotation Xrotation Yrotation
            JOINT LowerArm_L
            {
              OFFSET 24.3286 1.87007e-05 0
              CHANNELS 6 Xposition Yposition Zposition Zrotation Xrotation Yrotation
              JOINT Hand_L
              {
                OFFSET 22.2916 0 0
                CHANNELS 6 Xposition Yposition Zposition Zrotation Xrotation Yrotation
                End Site
                {
                  OFFSET 0 0 0
                }
              }
            }
          }
        }
        JOINT Shoulder_R
        {
          OFFSET 12.9945 -0.242716 -4.98039
          CHANNELS 6 Xposition Yposition Zposition Zrotation Xrotation Yrotation
          JOINT UpperArm_R
          {
            OFFSET -5.34813 0 0
            CHANNELS 6 Xposition Yposition Zposition Zrotation Xrotation Yrotation
            JOINT LowerArm_R
            {
              OFFSET -24.3289 0.000322201 0
              CHANNELS 6 Xposition Yposition Zposition Zrotation Xrotation Yrotation
              JOINT Hand_R
              {
                OFFSET -22.2915 -0.000108084 0
                CHANNELS 6 Xposition Yposition Zposition Zrotation Xrotation Yrotation
                End Site
                {
                  OFFSET 0 0 0
                }
              }
            }
          }
        }
      }
    }
    JOINT UpperLeg_L
    {
      OFFSET -2.19248 -6.46944 0
      CHANNELS 6 Xposition Yposition Zposition Zrotation Xrotation Yrotation
      JOINT LowerLeg_L
      {
        OFFSET 39.0811 0 -1.23785e-05
        CHANNELS 6 Xposition Yposition Zposition Zrotation Xrotation Yrotation
        JOINT Foot_L
        {
          OFFSET 40.9854 0 -1.26872e-05
          CHANNELS 6 Xposition Yposition Zposition Zrotation Xrotation Yrotation
          JOINT Toes_L
          {
            OFFSET 11.7543 0 0
            CHANNELS 6 Xposition Yposition Zposition Zrotation Xrotation Yrotation
            End Site
            {
              OFFSET 0 0 0
            }
          }
        }
      }
    }
    JOINT UpperLeg_R
    {
      OFFSET -2.19251 6.46944 0
      CHANNELS 6 Xposition Yposition Zposition Zrotation Xrotation Yrotation
      JOINT LowerLeg_R
      {
        OFFSET -39.0811 -0.00228153 -0.0401928
        CHANNELS 6 Xposition Yposition Zposition Zrotation Xrotation Yrotation
        JOINT Foot_R
        {
          OFFSET -40.9854 0 0
          CHANNELS 6 Xposition Yposition Zposition Zrotation Xrotation Yrotation
          JOINT Toes_R
          {
            OFFSET -11.7543 0 0
            CHANNELS 6 Xposition Yposition Zposition Zrotation Xrotation Yrotation
            End Site
            {
              OFFSET 0 0 0
            }
          }
        }
      }
    }
  }
}
MOTION
Frames:	4
Frame Time:	0.0333333
0 0 0 0 0 -0 -117.71 81.1269 -401.305 84.8783 -2.00464 -27.785 15.7357 5.1072e-06 -5.51765e-07 89.676 84.9058 -88.278 8.98455 -0.406207 -4.3199e-07 2.42509 -0.122725 2.79583 16.3773 -1.3905e-06 -6.99897e-07 -17.6672 -1.05576 0.295042 6.45672 -1.25837e-06 -1.02172e-07 -0.680508 1.32538 0.667331 12.9942 -0.242716 4.98039 -89.7743 -2.22081 -99.1949 5.34809 -7.22636e-06 -6.2814e-07 -23.2703 22.9963 -8.76127 24.3286 1.87007e-05 4.90208e-06 13.5573 -14.2889 -135.666 22.2916 -9.88446e-07 4.63217e-06 4.74767 5.39555 -2.7926 12.9945 -0.242716 -4.98039 90.7127 -5.28943 -97.3155 -5.34813 -1.25947e-06 -3.79883e-06 -21.9789 -8.42816 20.1048 -24.3289 0.000322201 -8.65921e-06 -0.0793084 -0.638603 -6.98889 -22.2915 -0.000108084 -4.47941e-06 -0.667557 4.5389 15.9525 -2.19248 -6.46944 -1.22534e-07 -175.414 2.35829 -54.3721 39.0811 -6.73843e-06 -1.23785e-05 -1.23992 -0.127778 94.7274 40.9854 -6.48686e-06 -1.26872e-05 17.3826 -15.4059 -40.9712 11.7543 -2.30145e-07 3.05095e-06 0.562813 -0.70065 -23.1277 -2.19251 6.46944 -1.45247e-06 -164.023 8.15803 143.578 -39.0811 -0.00228153 -0.0401928 0.0743727 -0.0212218 54.4219 -40.9854 7.72618e-06 5.99936e-06 -2.32663 -12.8137 -87.3081 -11.7543 -5.6619e-06 -5.58687e-06 -0.3074 -2.29922 -26.9331 
0 0 0 0 0 -0 -117.372 83.1884 -391.84 89.0036 -1.48671 -27.0659 15.7357 5.1072e-06 -5.51764e-07 94.0048 85.1085 -94.2021 8.98455 -0.406207 -4.3199e-07 1.99456 0.692737 -0.40633 16.3773 -1.3905e-06 -6.99897e-07 -16.5452 -2.30886 0.482065 6.45672 -1.25837e-06 -1.02172e-07 0.557488 -0.902424 1.15724 12.9942 -0.242716 4.98039 -89.7352 -2.4933 -98.9375 5.34809 -7.22636e-06 -6.2814e-07 -22.876 23.5524 -8.92276 24.3286 1.87007e-05 4.90208e-06 14.1829 -14.9259 -135.545 22.2916 -9.88446e-07 4.63217e-06 4.76241 5.39241 -2.69275 12.9945 -0.242716 -4.98039 90.6813 -5.26461 -97.6173 -5.34813 -1.25947e-06 -3.79883e-06 -21.4823 -7.53048 20.5323 -24.3289 0.000322201 -8.65921e-06 0.109066 0.84662 -7.40868 -22.2915 -0.000108084 -4.47941e-06 0.100794 4.54367 15.8724 -2.19248 -6.46944 -1.22533e-07 -178.071 5.32997 -61.0796 39.0811 -6.73843e-06 -1.23785e-05 -0.851713 0.000594343 88.3818 40.9854 -6.48686e-06 -1.26872e-05 13.1128 -19.3134 -51.673 11.7543 -2.30145e-07 3.05095e-06 0.479622 -0.586224 -22.0976 -2.19251 6.46944 -1.45247e-06 -169.645 11.8705 153.926 -39.0811 -0.00228153 -0.0401928 0.0296136 0.00330941 44.8989 -40.9854 7.72618e-06 5.99936e-06 -1.17388 -12.7347 -78.2494 -11.7543 -5.6619e-06 -5.58687e-06 0.437169 -3.21283 -34.1143 
0 0 0 0 0 -0 -116.855 85.612 -382.208 93.6892 -0.361673 -27.3252 15.7357 5.1072e-06 -5.51765e-07 95.4436 85.7068 -97.2514 8.98455 -0.406207 -4.3199e-07 0.798953 0.924111 -3.61932 16.3773 -1.3905e-06 -6.99897e-07 -14.8282 -3.63334 0.833941 6.45672 -1.25837e-06 -1.02172e-07 1.9066 -2.7256 1.55069 12.9942 -0.242716 4.98039 -89.6976 -2.89913 -99.0433 5.34809 -7.22636e-06 -6.2814e-07 -23.0273 25.1924 -9.26039 24.3286 1.87007e-05 4.90208e-06 15.4181 -16.1492 -135.243 22.2916 -9.88446e-07 4.63217e-06 4.22264 5.38969 -2.60495 12.9945 -0.242716 -4.98039 90.6586 -5.19537 -97.7658 -5.34813 -1.25947e-06 -3.79883e-06 -21.8659 -6.04009 21.3807 -24.3289 0.000322201 -8.65921e-06 0.0862866 0.662092 -7.51146 -22.2915 -0.000108084 -4.47941e-06 0.986088 4.58067 15.2458 -2.19248 -6.46944 -1.22534e-07 177.455 7.24831 -64.2029 39.0811 -6.73843e-06 -1.23785e-05 -0.458684 0.115075 73.7637 40.9854 -6.48686e-06 -1.26872e-05 11.0867 -16.2286 -58.5411 11.7543 -2.30144e-07 3.05095e-06 0.468059 -0.570651 -21.9563 -2.19251 6.46944 -1.45247e-06 -175.543 13.5146 163.655 -39.0811 -0.00228153 -0.0401928 0.0363023 -0.000883673 33.1948 -40.9854 7.72618e-06 5.99936e-06 1.46085 -14.7387 -62.5317 -11.7543 -5.6619e-06 -5.58687e-06 2.47462 -4.23914 -44.091 
0 0 0 0 0 -0 -116.549 87.5257 -372.599 96.1055 0.878957 -26.919 15.7357 5.1072e-06 -5.51765e-07 101.02 85.8913 -103.678 8.98455 -0.406207 -4.3199e-07 0.346075 1.74221 -5.31775 16.3773 -1.3905e-06 -6.99897e-07 -13.3978 -4.70637 1.0696 6.45672 -1.25837e-06 -1.02172e-07 2.67264 -4.34552 1.92383 12.9942 -0.242716 4.98039 -89.6547 -3.45204 -99.284 5.34809 -7.22636e-06 -6.2814e-07 -23.2491 27.1705 -10.2998 24.3286 1.87007e-05 4.90208e-06 16.5315 -17.3083 -135.067 22.2916 -9.88446e-07 4.63217e-06 4.15243 5.39602 -2.80814 12.9945 -0.242716 -4.98039 90.6128 -4.54053 -97.3039 -5.34813 -1.25947e-06 -3.79883e-06 -21.081 -6.50246 22.8115 -24.3289 0.000322201 -8.65921e-06 0.431746 3.16372 -7.79193 -22.2915 -0.000108084 -4.47941e-06 2.4783 4.58466 15.1779 -2.19248 -6.46944 -1.22534e-07 172.943 5.86394 -61.9725 39.0811 -6.73843e-06 -1.23785e-05 -0.176747 0.116214 55.3733 40.9854 -6.48686e-06 -1.26872e-05 4.47546 -5.59839 -65.6289 11.7543 -2.30145e-07 3.05095e-06 0.41641 -0.50206 -21.331 -2.19251 6.46944 -1.45247e-06 -178.402 7.98131 171.351 -39.0811 -0.00228153 -0.0401928 -0.0136303 0.0826677 24.2014 -40.9854 7.72618e-06 5.99936e-06 8.32567 -19.6597 -37.6565 -11.7543 -5.6619e-06 -5.58687e-06 2.80922 -5.79575 -52.9352 
